<svg width="24" height="24" viewBox="0 0 24 24" fill="none" xmlns="http://www.w3.org/2000/svg">
<g clip-path="url(#clip0_232_2549)">
<path d="M9.75 4.22218C9.75 3.63282 9.98705 3.0676 10.409 2.65086C10.831 2.23412 11.4033 2 12 2C12.5967 2 13.169 2.23412 13.591 2.65086C14.0129 3.0676 14.25 3.63282 14.25 4.22218C15.542 4.82553 16.6433 5.76473 17.4361 6.93912C18.2288 8.11351 18.683 9.47881 18.75 10.8887V14.222C18.8347 14.9127 19.0824 15.5742 19.4732 16.1532C19.864 16.7321 20.3869 17.2124 21 17.5552H3C3.61306 17.2124 4.13604 16.7321 4.52684 16.1532C4.91764 15.5742 5.16534 14.9127 5.25 14.222V10.8887C5.31701 9.47881 5.77121 8.11351 6.56394 6.93912C7.35667 5.76473 8.45804 4.82553 9.75 4.22218" stroke="#13AC6F" stroke-width="1.5" stroke-linecap="round" stroke-linejoin="round"/>
<path d="M8.625 17.5557V18.6668C8.625 19.5508 8.98058 20.3986 9.61351 21.0237C10.2464 21.6488 11.1049 22 12 22C12.8951 22 13.7536 21.6488 14.3865 21.0237C15.0194 20.3986 15.375 19.5508 15.375 18.6668V17.5557" stroke="#13AC6F" stroke-width="1.5" stroke-linecap="round" stroke-linejoin="round"/>
</g>
<defs>
<clipPath id="clip0_232_2549">
<rect width="24" height="24" fill="white"/>
</clipPath>
</defs>
</svg>
