<svg width="15" height="17" viewBox="0 0 15 17" fill="none" xmlns="http://www.w3.org/2000/svg">
<path d="M12.9746 3.2251L12.5096 10.7438C12.3911 12.6646 12.3319 13.6253 11.8496 14.3161C11.6115 14.6575 11.305 14.9456 10.9496 15.1621C10.2319 15.6001 9.26961 15.6001 7.34511 15.6001C5.41761 15.6001 4.45386 15.6001 3.73461 15.1613C3.37903 14.9444 3.07252 14.6558 2.83461 14.3138C2.35311 13.6223 2.29461 12.6601 2.17911 10.7363L1.72461 3.2251M0.599609 3.2251H14.0996M10.3916 3.2251L9.87936 2.1691C9.53961 1.4671 9.36936 1.11685 9.07611 0.897848C9.01097 0.849334 8.94199 0.806193 8.86986 0.768848C8.54511 0.600098 8.15511 0.600098 7.37586 0.600098C6.57636 0.600098 6.17661 0.600098 5.84586 0.775598C5.77275 0.814756 5.70301 0.859911 5.63736 0.910598C5.34111 1.13785 5.17536 1.5016 4.84386 2.22835L4.38936 3.2251M5.47461 11.4751V6.9751M9.22461 11.4751V6.9751" stroke="#EF4444" stroke-width="1.2" stroke-linecap="round" stroke-linejoin="round"/>
</svg>
