<svg width="20" height="20" viewBox="0 0 20 20" fill="none" xmlns="http://www.w3.org/2000/svg">
<path d="M5.75108 0.74074C5.75108 0.544284 5.67206 0.355873 5.53141 0.216958C5.39076 0.0780421 5.19999 0 5.00108 0C4.80217 0 4.6114 0.0780421 4.47075 0.216958C4.3301 0.355873 4.25108 0.544284 4.25108 0.74074V2.30123C2.81108 2.41481 1.86708 2.69333 1.17308 3.37975C0.478078 4.06518 0.196078 4.99851 0.0800781 6.41975H19.9221C19.8061 4.99753 19.5241 4.06518 18.8291 3.37975C18.1351 2.69333 17.1901 2.41481 15.7511 2.30024V0.74074C15.7511 0.544284 15.6721 0.355873 15.5314 0.216958C15.3908 0.0780421 15.2 0 15.0011 0C14.8022 0 14.6114 0.0780421 14.4707 0.216958C14.3301 0.355873 14.2511 0.544284 14.2511 0.74074V2.23506C13.5861 2.22222 12.8401 2.22222 12.0011 2.22222H8.00108C7.16208 2.22222 6.41608 2.22222 5.75108 2.23506V0.74074Z" fill="#13AC6F"/>
<path fill-rule="evenodd" clip-rule="evenodd" d="M0 10.1236C0 9.29495 1.11759e-08 8.55816 0.013 7.90137H19.987C20 8.55816 20 9.29495 20 10.1236V12.0989C20 15.8233 20 17.686 18.828 18.8426C17.656 19.9991 15.771 20.0001 12 20.0001H8C4.229 20.0001 2.343 20.0001 1.172 18.8426C0.000999928 17.6851 0 15.8233 0 12.0989V10.1236ZM15 12.0989C15.2652 12.0989 15.5196 11.9948 15.7071 11.8096C15.8946 11.6244 16 11.3732 16 11.1112C16 10.8493 15.8946 10.5981 15.7071 10.4129C15.5196 10.2276 15.2652 10.1236 15 10.1236C14.7348 10.1236 14.4804 10.2276 14.2929 10.4129C14.1054 10.5981 14 10.8493 14 11.1112C14 11.3732 14.1054 11.6244 14.2929 11.8096C14.4804 11.9948 14.7348 12.0989 15 12.0989ZM15 16.0495C15.2652 16.0495 15.5196 15.9455 15.7071 15.7602C15.8946 15.575 16 15.3238 16 15.0619C16 14.7999 15.8946 14.5487 15.7071 14.3635C15.5196 14.1783 15.2652 14.0742 15 14.0742C14.7348 14.0742 14.4804 14.1783 14.2929 14.3635C14.1054 14.5487 14 14.7999 14 15.0619C14 15.3238 14.1054 15.575 14.2929 15.7602C14.4804 15.9455 14.7348 16.0495 15 16.0495ZM11 11.1112C11 11.3732 10.8946 11.6244 10.7071 11.8096C10.5196 11.9948 10.2652 12.0989 10 12.0989C9.73478 12.0989 9.48043 11.9948 9.29289 11.8096C9.10536 11.6244 9 11.3732 9 11.1112C9 10.8493 9.10536 10.5981 9.29289 10.4129C9.48043 10.2276 9.73478 10.1236 10 10.1236C10.2652 10.1236 10.5196 10.2276 10.7071 10.4129C10.8946 10.5981 11 10.8493 11 11.1112ZM11 15.0619C11 15.3238 10.8946 15.575 10.7071 15.7602C10.5196 15.9455 10.2652 16.0495 10 16.0495C9.73478 16.0495 9.48043 15.9455 9.29289 15.7602C9.10536 15.575 9 15.3238 9 15.0619C9 14.7999 9.10536 14.5487 9.29289 14.3635C9.48043 14.1783 9.73478 14.0742 10 14.0742C10.2652 14.0742 10.5196 14.1783 10.7071 14.3635C10.8946 14.5487 11 14.7999 11 15.0619ZM5 12.0989C5.26522 12.0989 5.51957 11.9948 5.70711 11.8096C5.89464 11.6244 6 11.3732 6 11.1112C6 10.8493 5.89464 10.5981 5.70711 10.4129C5.51957 10.2276 5.26522 10.1236 5 10.1236C4.73478 10.1236 4.48043 10.2276 4.29289 10.4129C4.10536 10.5981 4 10.8493 4 11.1112C4 11.3732 4.10536 11.6244 4.29289 11.8096C4.48043 11.9948 4.73478 12.0989 5 12.0989ZM5 16.0495C5.26522 16.0495 5.51957 15.9455 5.70711 15.7602C5.89464 15.575 6 15.3238 6 15.0619C6 14.7999 5.89464 14.5487 5.70711 14.3635C5.51957 14.1783 5.26522 14.0742 5 14.0742C4.73478 14.0742 4.48043 14.1783 4.29289 14.3635C4.10536 14.5487 4 14.7999 4 15.0619C4 15.3238 4.10536 15.575 4.29289 15.7602C4.48043 15.9455 4.73478 16.0495 5 16.0495Z" fill="#13AC6F"/>
</svg>
