<svg width="26" height="26" viewBox="0 0 26 26" fill="none" xmlns="http://www.w3.org/2000/svg">
<path d="M3 12.7433C3 8.87555 3 6.94118 4.172 5.74015C5.344 4.53911 7.229 4.53809 11 4.53809H15C18.771 4.53809 20.657 4.53809 21.828 5.74015C22.999 6.94221 23 8.87555 23 12.7433V14.7946C23 18.6623 23 20.5967 21.828 21.7977C20.656 22.9987 18.771 22.9998 15 22.9998H11C7.229 22.9998 5.343 22.9998 4.172 21.7977C3.001 20.5956 3 18.6623 3 14.7946V12.7433Z" stroke="#706C6C" stroke-width="1.5"/>
<path d="M8 4.53847V3M18 4.53847V3M3.5 9.66672H22.5" stroke="#706C6C" stroke-width="1.5" stroke-linecap="round"/>
<path d="M19 17.8719C19 18.1439 18.8946 18.4048 18.7071 18.5971C18.5196 18.7895 18.2652 18.8975 18 18.8975C17.7348 18.8975 17.4804 18.7895 17.2929 18.5971C17.1054 18.4048 17 18.1439 17 17.8719C17 17.5999 17.1054 17.339 17.2929 17.1467C17.4804 16.9543 17.7348 16.8462 18 16.8462C18.2652 16.8462 18.5196 16.9543 18.7071 17.1467C18.8946 17.339 19 17.5999 19 17.8719ZM19 13.7693C19 14.0413 18.8946 14.3022 18.7071 14.4945C18.5196 14.6869 18.2652 14.7949 18 14.7949C17.7348 14.7949 17.4804 14.6869 17.2929 14.4945C17.1054 14.3022 17 14.0413 17 13.7693C17 13.4973 17.1054 13.2364 17.2929 13.0441C17.4804 12.8517 17.7348 12.7437 18 12.7437C18.2652 12.7437 18.5196 12.8517 18.7071 13.0441C18.8946 13.2364 19 13.4973 19 13.7693ZM14 17.8719C14 18.1439 13.8946 18.4048 13.7071 18.5971C13.5196 18.7895 13.2652 18.8975 13 18.8975C12.7348 18.8975 12.4804 18.7895 12.2929 18.5971C12.1054 18.4048 12 18.1439 12 17.8719C12 17.5999 12.1054 17.339 12.2929 17.1467C12.4804 16.9543 12.7348 16.8462 13 16.8462C13.2652 16.8462 13.5196 16.9543 13.7071 17.1467C13.8946 17.339 14 17.5999 14 17.8719ZM14 13.7693C14 14.0413 13.8946 14.3022 13.7071 14.4945C13.5196 14.6869 13.2652 14.7949 13 14.7949C12.7348 14.7949 12.4804 14.6869 12.2929 14.4945C12.1054 14.3022 12 14.0413 12 13.7693C12 13.4973 12.1054 13.2364 12.2929 13.0441C12.4804 12.8517 12.7348 12.7437 13 12.7437C13.2652 12.7437 13.5196 12.8517 13.7071 13.0441C13.8946 13.2364 14 13.4973 14 13.7693ZM9 17.8719C9 18.1439 8.89464 18.4048 8.70711 18.5971C8.51957 18.7895 8.26522 18.8975 8 18.8975C7.73478 18.8975 7.48043 18.7895 7.29289 18.5971C7.10536 18.4048 7 18.1439 7 17.8719C7 17.5999 7.10536 17.339 7.29289 17.1467C7.48043 16.9543 7.73478 16.8462 8 16.8462C8.26522 16.8462 8.51957 16.9543 8.70711 17.1467C8.89464 17.339 9 17.5999 9 17.8719ZM9 13.7693C9 14.0413 8.89464 14.3022 8.70711 14.4945C8.51957 14.6869 8.26522 14.7949 8 14.7949C7.73478 14.7949 7.48043 14.6869 7.29289 14.4945C7.10536 14.3022 7 14.0413 7 13.7693C7 13.4973 7.10536 13.2364 7.29289 13.0441C7.48043 12.8517 7.73478 12.7437 8 12.7437C8.26522 12.7437 8.51957 12.8517 8.70711 13.0441C8.89464 13.2364 9 13.4973 9 13.7693Z" fill="#706C6C"/>
</svg>
