<svg width="20" height="20" viewBox="0 0 20 20" fill="none" xmlns="http://www.w3.org/2000/svg">
<path d="M5.69151 13.8085C3.59908 11.712 1.98992 9.18372 0.976578 6.40044C0.419076 4.87874 0.929876 3.20721 2.07601 2.06107L2.7853 1.35276C2.97598 1.16168 3.20248 1.0101 3.45182 0.906667C3.70117 0.803238 3.96846 0.75 4.2384 0.75C4.50834 0.75 4.77564 0.803238 5.02498 0.906667C5.27432 1.0101 5.50082 1.16168 5.69151 1.35276L7.35234 3.01359C7.54341 3.20427 7.695 3.43077 7.79842 3.68011C7.90185 3.92946 7.95509 4.19675 7.95509 4.46669C7.95509 4.73664 7.90185 5.00393 7.79842 5.25327C7.695 5.50262 7.54341 5.72911 7.35234 5.9198L6.9437 6.32844C6.78013 6.49197 6.65038 6.68613 6.56185 6.89981C6.47333 7.1135 6.42777 7.34253 6.42777 7.57382C6.42777 7.80512 6.47333 8.03415 6.56185 8.24783C6.65038 8.46152 6.78013 8.65567 6.9437 8.8192L10.6798 12.5563C10.8434 12.7199 11.0375 12.8496 11.2512 12.9382C11.4649 13.0267 11.6939 13.0722 11.9252 13.0722C12.1565 13.0722 12.3855 13.0267 12.5992 12.9382C12.8129 12.8496 13.0071 12.7199 13.1706 12.5563L13.5802 12.1477C13.7709 11.9566 13.9974 11.805 14.2467 11.7016C14.4961 11.5982 14.7634 11.5449 15.0333 11.5449C15.3033 11.5449 15.5705 11.5982 15.8199 11.7016C16.0692 11.805 16.2957 11.9566 16.4864 12.1477L18.1472 13.8085C18.3383 13.9992 18.4899 14.2257 18.5933 14.475C18.6968 14.7244 18.75 14.9917 18.75 15.2616C18.75 15.5316 18.6968 15.7989 18.5933 16.0482C18.4899 16.2975 18.3383 16.524 18.1472 16.7147L17.4389 17.423C16.2928 18.5701 14.6213 19.0809 13.0996 18.5234C10.3163 17.5101 7.78799 15.9009 5.69151 13.8085Z" stroke="#13AC6F" stroke-width="1.5" stroke-linejoin="round"/>
</svg>
