<svg width="24" height="19" viewBox="0 0 24 19" fill="none" xmlns="http://www.w3.org/2000/svg">
<path d="M0.75 9.41667C0.75 5.33142 0.75 3.28825 2.01967 2.01967C3.28933 0.751083 5.33142 0.75 9.41667 0.75H13.75C17.8352 0.75 19.8784 0.75 21.147 2.01967C22.4156 3.28933 22.4167 5.33142 22.4167 9.41667C22.4167 13.5019 22.4167 15.5451 21.147 16.8137C19.8773 18.0822 17.8352 18.0833 13.75 18.0833H9.41667C5.33142 18.0833 3.28825 18.0833 2.01967 16.8137C0.751083 15.544 0.75 13.5019 0.75 9.41667Z" stroke="#4A5565" stroke-width="1.5"/>
<path d="M9.41667 13.75H5.08333M13.75 13.75H12.125M0.75 7.25H22.4167" stroke="#4A5565" stroke-width="1.5" stroke-linecap="round"/>
</svg>
