<svg width="21" height="21" viewBox="0 0 21 21" fill="none" xmlns="http://www.w3.org/2000/svg">
<path d="M6.80273 4.80069V3.72552C6.80273 2.87006 7.16201 2.04963 7.80151 1.44473C8.44102 0.83983 9.30838 0.5 10.2128 0.5C11.1172 0.5 11.9845 0.83983 12.6241 1.44473C13.2636 2.04963 13.6228 2.87006 13.6228 3.72552V4.80069" stroke="#13AC6F" stroke-linecap="round" stroke-linejoin="round"/>
<path d="M0.886623 11.284C0.886156 11.2842 0.885644 11.2838 0.88575 11.2833C1.49597 8.39408 1.8018 6.95148 2.80989 6.02051C2.99623 5.84896 3.19778 5.69285 3.41233 5.55389C4.57516 4.80127 6.13242 4.80127 9.24693 4.80127H11.1827C14.2961 4.80127 15.8522 4.80127 17.0139 5.55389C17.2299 5.69438 17.4307 5.85028 17.6163 6.02159C18.6246 6.95161 18.9315 8.39557 19.5419 11.2846C20.4183 15.4304 20.857 17.5034 19.8476 18.972C19.665 19.2394 19.4528 19.4842 19.2111 19.7064C17.8857 20.9289 15.6521 20.9289 11.1827 20.9289H9.24693C4.77635 20.9289 2.54163 20.9289 1.21626 19.7053C0.97647 19.4834 0.763371 19.2372 0.580855 18.971C-0.428418 17.5024 0.0101519 15.4298 0.887495 11.2847C0.887602 11.2842 0.887089 11.2838 0.886623 11.284Z" fill="#13AC6F"/>
<path d="M13.623 9.10152C14.2508 9.10152 14.7597 8.62015 14.7597 8.02634C14.7597 7.43254 14.2508 6.95117 13.623 6.95117C12.9952 6.95117 12.4863 7.43254 12.4863 8.02634C12.4863 8.62015 12.9952 9.10152 13.623 9.10152Z" fill="white"/>
<path d="M6.80465 9.10152C7.43243 9.10152 7.94134 8.62015 7.94134 8.02634C7.94134 7.43254 7.43243 6.95117 6.80465 6.95117C6.17688 6.95117 5.66797 7.43254 5.66797 8.02634C5.66797 8.62015 6.17688 9.10152 6.80465 9.10152Z" fill="white"/>
</svg>
