<svg width="24" height="17" viewBox="0 0 24 17" fill="none" xmlns="http://www.w3.org/2000/svg">
<path d="M0.75 13.75V2.91667C0.75 2.34203 0.978273 1.79093 1.3846 1.3846C1.79093 0.978273 2.34203 0.75 2.91667 0.75H20.25C20.8246 0.75 21.3757 0.978273 21.7821 1.3846C22.1884 1.79093 22.4167 2.34203 22.4167 2.91667V13.75C22.4167 14.3246 22.1884 14.8757 21.7821 15.2821C21.3757 15.6884 20.8246 15.9167 20.25 15.9167H2.91667C2.34203 15.9167 1.79093 15.6884 1.3846 15.2821C0.978273 14.8757 0.75 14.3246 0.75 13.75Z" stroke="#4A5565" stroke-width="1.5" stroke-linecap="round" stroke-linejoin="round"/>
<path d="M18.6253 8.34433L18.6362 8.33241M4.54199 8.34433L4.55283 8.33241M11.5837 11.5835C10.7217 11.5835 9.89505 11.2411 9.28556 10.6316C8.67607 10.0221 8.33366 9.19545 8.33366 8.3335C8.33366 7.47154 8.67607 6.64489 9.28556 6.0354C9.89505 5.42591 10.7217 5.0835 11.5837 5.0835C12.4456 5.0835 13.2723 5.42591 13.8818 6.0354C14.4912 6.64489 14.8337 7.47154 14.8337 8.3335C14.8337 9.19545 14.4912 10.0221 13.8818 10.6316C13.2723 11.2411 12.4456 11.5835 11.5837 11.5835Z" stroke="#4A5565" stroke-width="1.5" stroke-linecap="round" stroke-linejoin="round"/>
</svg>
