<svg width="15" height="15" viewBox="0 0 15 15" fill="none" xmlns="http://www.w3.org/2000/svg">
<path d="M2.54785 5.09998C2.54785 6.29345 3.02196 7.43804 3.86587 8.28196C4.70978 9.12587 5.85438 9.59998 7.04785 9.59998C8.24133 9.59998 9.38592 9.12587 10.2298 8.28196C11.0737 7.43804 11.5479 6.29345 11.5479 5.09998C11.5479 3.9065 11.0737 2.76191 10.2298 1.918C9.38592 1.07408 8.24133 0.599976 7.04785 0.599976C5.85438 0.599976 4.70978 1.07408 3.86587 1.918C3.02196 2.76191 2.54785 3.9065 2.54785 5.09998Z" stroke="#13AC6F" stroke-width="1.2" stroke-linecap="round" stroke-linejoin="round"/>
<path d="M7.04811 9.59998L9.59811 14.0175L10.7966 11.5927L13.4951 11.7667L10.9451 7.34998M3.14961 7.34998L0.599609 11.7675L3.29811 11.5927L4.49661 14.0167L7.04661 9.59998" stroke="#13AC6F" stroke-width="1.2" stroke-linecap="round" stroke-linejoin="round"/>
</svg>
