<svg width="24" height="24" viewBox="0 0 24 24" fill="none" xmlns="http://www.w3.org/2000/svg">
<g clip-path="url(#clip0_232_2583)">
<path d="M8.00391 17H16.0039M8.00391 13H12.0039M13.0039 2.5V3C13.0039 5.828 13.0039 7.243 13.8829 8.121C14.7609 9 16.1759 9 19.0039 9H19.5039M20.0039 10.657V14C20.0039 17.771 20.0039 19.657 18.8319 20.828C17.6599 21.999 15.7749 22 12.0039 22C8.23291 22 6.34691 22 5.17591 20.828C4.00491 19.656 4.00391 17.771 4.00391 14V9.456C4.00391 6.211 4.00391 4.588 4.88991 3.489C5.06885 3.26709 5.27099 3.06494 5.49291 2.886C6.59391 2 8.21491 2 11.4599 2C12.1649 2 12.5179 2 12.8409 2.114C12.9076 2.138 12.9732 2.16533 13.0379 2.196C13.3479 2.344 13.5969 2.593 14.0959 3.092L18.8319 7.828C19.4109 8.406 19.6989 8.696 19.8519 9.063C20.0039 9.431 20.0039 9.839 20.0039 10.657Z" stroke="#13AC6F" stroke-width="1.5" stroke-linecap="round" stroke-linejoin="round"/>
</g>
<defs>
<clipPath id="clip0_232_2583">
<rect width="24" height="24" fill="white"/>
</clipPath>
</defs>
</svg>
