<svg width="20" height="20" viewBox="0 0 20 20" fill="none" xmlns="http://www.w3.org/2000/svg">
<g clip-path="url(#clip0_210_353)">
<path d="M3.33398 17.4998H16.6673M4.72232 10.989C4.367 11.3451 4.16741 11.8276 4.16732 12.3306V14.9998H6.85315C7.35648 14.9998 7.83898 14.7998 8.19482 14.4431L16.1115 6.52229C16.4667 6.16612 16.6661 5.68364 16.6661 5.18063C16.6661 4.67761 16.4667 4.19513 16.1115 3.83896L15.3298 3.05563C15.1535 2.87925 14.9442 2.73935 14.7138 2.64393C14.4834 2.54851 14.2365 2.49943 13.9871 2.49951C13.7378 2.49959 13.4909 2.54882 13.2605 2.64438C13.0302 2.73995 12.821 2.87998 12.6448 3.05646L4.72232 10.989Z" stroke="#706C6C" stroke-width="1.2" stroke-linecap="round" stroke-linejoin="round"/>
</g>
<defs>
<clipPath id="clip0_210_353">
<rect width="20" height="20" fill="white"/>
</clipPath>
</defs>
</svg>
