<svg width="18" height="18" viewBox="0 0 18 18" fill="none" xmlns="http://www.w3.org/2000/svg">
<g clip-path="url(#clip0_412_3873)">
<path d="M6.75 8.25C7.57843 8.25 8.25 7.57843 8.25 6.75C8.25 5.92157 7.57843 5.25 6.75 5.25C5.92157 5.25 5.25 5.92157 5.25 6.75C5.25 7.57843 5.92157 8.25 6.75 8.25Z" stroke="#13AC6F" stroke-width="1.2"/>
<path d="M9.75 11.25C9.75 12.0787 9.75 12.75 6.75 12.75C3.75 12.75 3.75 12.0787 3.75 11.25C3.75 10.4212 5.0925 9.75 6.75 9.75C8.4075 9.75 9.75 10.4212 9.75 11.25Z" stroke="#13AC6F" stroke-width="1.2"/>
<path d="M1.5 9C1.5 6.17175 1.5 4.75725 2.379 3.879C3.258 3.00075 4.67175 3 7.5 3H10.5C13.3282 3 14.7427 3 15.621 3.879C16.4992 4.758 16.5 6.17175 16.5 9C16.5 11.8282 16.5 13.2427 15.621 14.121C14.742 14.9992 13.3282 15 10.5 15H7.5C4.67175 15 3.25725 15 2.379 14.121C1.50075 13.242 1.5 11.8282 1.5 9Z" stroke="#13AC6F" stroke-width="1.2"/>
<path d="M14.25 9H11.25M14.25 6.75H10.5M14.25 11.25H12" stroke="#13AC6F" stroke-width="1.2" stroke-linecap="round"/>
</g>
<defs>
<clipPath id="clip0_412_3873">
<rect width="18" height="18" fill="white"/>
</clipPath>
</defs>
</svg>
