<svg width="26" height="26" viewBox="0 0 26 26" fill="none" xmlns="http://www.w3.org/2000/svg">
<g clip-path="url(#clip0_116_2232)">
<path d="M12.813 15.2V14.5169C12.8125 14.0667 12.9305 13.6243 13.1553 13.2342C13.3801 12.8442 13.7036 12.5202 14.0934 12.2949C15.332 11.5689 15.7588 10.0322 15.0328 8.7936C14.3068 7.555 12.7701 7.1282 11.5315 7.8542C10.7615 8.325 10.25 9.1357 10.25 10.0751M13 18.5H12.9912M24 13C24 6.9247 19.0753 2 13 2C6.9247 2 2 6.9247 2 13C2 19.0753 6.9247 24 13 24C19.0753 24 24 19.0753 24 13Z" stroke="#706C6C" stroke-width="1.5" stroke-miterlimit="10" stroke-linecap="round" stroke-linejoin="round"/>
</g>
<defs>
<clipPath id="clip0_116_2232">
<rect width="26" height="26" fill="white"/>
</clipPath>
</defs>
</svg>
