<svg width="20" height="20" viewBox="0 0 20 20" fill="none" xmlns="http://www.w3.org/2000/svg">
<g clip-path="url(#clip0_210_410)">
<path d="M18 17.5H2M2 8.81579L8.5008 3.68421C8.92634 3.34828 9.45506 3.16527 10 3.16527C10.5449 3.16527 11.0737 3.34828 11.4992 3.68421L18 8.81579M12.8 4.47368V2.89474C12.8 2.79005 12.8421 2.68964 12.9172 2.61562C12.9922 2.54159 13.0939 2.5 13.2 2.5H15.2C15.3061 2.5 15.4078 2.54159 15.4828 2.61562C15.5579 2.68964 15.6 2.79005 15.6 2.89474V6.84211M3.6 17.5V7.63158M16.4 17.5V7.63158" stroke="white" stroke-width="1.2" stroke-linecap="round"/>
<path d="M12.3996 17.5001V13.5527C12.3996 12.4364 12.3996 11.8783 12.0476 11.5317C11.6972 11.1843 11.1316 11.1843 9.99961 11.1843C8.86761 11.1843 8.30281 11.1843 7.95161 11.5317C7.59961 11.8775 7.59961 12.4356 7.59961 13.5527V17.5001M11.5996 7.63168C11.5996 8.05044 11.431 8.45206 11.131 8.74817C10.8309 9.04428 10.424 9.21063 9.99961 9.21063C9.57526 9.21063 9.1683 9.04428 8.86824 8.74817C8.56818 8.45206 8.39961 8.05044 8.39961 7.63168C8.39961 7.21292 8.56818 6.81131 8.86824 6.5152C9.1683 6.21909 9.57526 6.05273 9.99961 6.05273C10.424 6.05273 10.8309 6.21909 11.131 6.5152C11.431 6.81131 11.5996 7.21292 11.5996 7.63168Z" stroke="white" stroke-width="1.2"/>
</g>
<defs>
<clipPath id="clip0_210_410">
<rect width="20" height="20" fill="white"/>
</clipPath>
</defs>
</svg>
