<svg width="26" height="26" viewBox="0 0 26 26" fill="none" xmlns="http://www.w3.org/2000/svg">
<path d="M13 2.25C13.7081 2.25 14.3517 2.45256 15.0498 2.79199C15.7325 3.12395 16.5223 3.61512 17.5117 4.22949L19.5117 5.4707C20.4477 6.05195 21.1964 6.51565 21.7715 6.95605C22.3595 7.40644 22.8117 7.8653 23.1377 8.46191L23.252 8.6875C23.4998 9.21787 23.62 9.78504 23.6816 10.4404C23.7507 11.1742 23.75 12.0736 23.75 13.2041V14.7246C23.75 16.6544 23.7519 18.1751 23.5977 19.3613C23.4507 20.4914 23.1519 21.4178 22.502 22.1631L22.3672 22.3096C21.6202 23.0825 20.6691 23.4281 19.4922 23.5918C18.3393 23.7521 16.8635 23.75 15 23.75H11C9.13652 23.75 7.66069 23.7521 6.50781 23.5918C5.40436 23.4383 4.49964 23.1247 3.77539 22.4492L3.63281 22.3096C2.88878 21.5401 2.55907 20.5667 2.40234 19.3613C2.24809 18.175 2.25 16.6541 2.25 14.7246V13.2031C2.25 12.073 2.24929 11.1733 2.31836 10.4395C2.38886 9.6907 2.53562 9.05687 2.8623 8.46191H2.86328C3.18975 7.86558 3.64136 7.40657 4.22949 6.95605C4.80443 6.51567 5.55226 6.05196 6.48828 5.4707L8.48828 4.22949C9.47817 3.61513 10.2686 3.12392 10.9512 2.79199C11.649 2.45269 12.292 2.25 13 2.25Z" stroke="#706C6C" stroke-width="1.5"/>
</svg>
