<svg width="20" height="22" viewBox="0 0 20 22" fill="none" xmlns="http://www.w3.org/2000/svg">
<path d="M3.75 5.25C1.909 6.898 0.75 9.084 0.75 11.75C0.75 12.9319 0.982792 14.1022 1.43508 15.1941C1.88738 16.2861 2.55031 17.2782 3.38604 18.114C4.22177 18.9497 5.21392 19.6126 6.30585 20.0649C7.39778 20.5172 8.5681 20.75 9.75 20.75C10.9319 20.75 12.1022 20.5172 13.1942 20.0649C14.2861 19.6126 15.2782 18.9497 16.114 18.114C16.9497 17.2782 17.6126 16.2861 18.0649 15.1941C18.5172 14.1022 18.75 12.9319 18.75 11.75C18.75 9.084 17.591 6.898 15.75 5.25M9.75 0.75V9.75M9.75 0.75C9.05 0.75 7.742 2.744 7.25 3.25M9.75 0.75C10.45 0.75 11.758 2.744 12.25 3.25" stroke="#13AC6F" stroke-width="1.5" stroke-linecap="round" stroke-linejoin="round"/>
</svg>
