<svg width="26" height="26" viewBox="0 0 26 26" fill="none" xmlns="http://www.w3.org/2000/svg">
<path d="M3.67064 13.5702C4.28104 10.6801 4.58681 9.23726 5.59505 8.30616C5.78139 8.13461 5.98294 7.9785 6.19749 7.83953C7.36032 7.08691 8.91757 7.08691 12.0321 7.08691H13.9679C17.0812 7.08691 18.6374 7.08691 19.799 7.83953C20.015 7.98002 20.2158 8.13592 20.4015 8.30723C21.4097 9.23726 21.7166 10.6812 22.327 13.5702C23.2034 17.7161 23.6422 19.789 22.6328 21.2577C22.4502 21.525 22.238 21.7698 21.9963 21.992C20.6709 23.2145 18.4373 23.2145 13.9679 23.2145H12.0321C7.56151 23.2145 5.32679 23.2145 4.00142 21.991C3.76163 21.7691 3.54853 21.5228 3.36601 21.2566C2.35664 19.7879 2.7954 17.715 3.67292 13.5691L3.67064 13.5702Z" stroke="#706C6C" stroke-width="1.5"/>
<path d="M16.4087 11.3872C17.0364 11.3872 17.5453 10.9058 17.5453 10.312C17.5453 9.71819 17.0364 9.23682 16.4087 9.23682C15.7809 9.23682 15.272 9.71819 15.272 10.312C15.272 10.9058 15.7809 11.3872 16.4087 11.3872Z" fill="#706C6C"/>
<path d="M9.58883 11.3872C10.2166 11.3872 10.7255 10.9058 10.7255 10.312C10.7255 9.71819 10.2166 9.23682 9.58883 9.23682C8.96106 9.23682 8.45215 9.71819 8.45215 10.312C8.45215 10.9058 8.96106 11.3872 9.58883 11.3872Z" fill="#706C6C"/>
<path d="M9.58789 7.08633V6.01116C9.58789 5.1557 9.94716 4.33528 10.5867 3.73038C11.2262 3.12547 12.0935 2.78564 12.9979 2.78564C13.9023 2.78564 14.7697 3.12547 15.4092 3.73038C16.0487 4.33528 16.408 5.1557 16.408 6.01116V7.08633" stroke="#706C6C" stroke-width="1.5" stroke-linecap="round"/>
</svg>
