<svg width="22" height="22" viewBox="0 0 22 22" fill="none" xmlns="http://www.w3.org/2000/svg">
<g clip-path="url(#clip0_388_2762)">
<path d="M19.7653 2.23437L9.75355 12.2461M2.28214 8.59117L19.4696 2.08613C19.5316 2.06241 19.5992 2.05716 19.6641 2.071C19.729 2.08484 19.7886 2.11719 19.8355 2.16413C19.8824 2.21107 19.9148 2.2706 19.9286 2.33552C19.9425 2.40045 19.9372 2.46799 19.9135 2.53L13.4085 19.7175C13.3826 19.7828 13.3374 19.8385 13.2788 19.8773C13.2203 19.9161 13.1513 19.9361 13.0811 19.9345C13.0109 19.9329 12.9429 19.9098 12.8862 19.8684C12.8295 19.827 12.7868 19.7693 12.7639 19.7029L9.86784 12.5662C9.83408 12.4651 9.77726 12.3732 9.70186 12.2978C9.62647 12.2224 9.53457 12.1656 9.43343 12.1318L2.29675 9.23828C2.22952 9.21591 2.17084 9.17331 2.12875 9.11631C2.08666 9.05931 2.06321 8.9907 2.06161 8.91987C2.06001 8.84903 2.08034 8.77943 2.11982 8.72059C2.15929 8.66175 2.21599 8.61655 2.28214 8.59117Z" stroke="#13AC6F" stroke-width="1.5" stroke-linecap="round" stroke-linejoin="round"/>
</g>
<defs>
<clipPath id="clip0_388_2762">
<rect width="22" height="22" fill="white"/>
</clipPath>
</defs>
</svg>
