<svg width="26" height="26" viewBox="0 0 26 26" fill="none" xmlns="http://www.w3.org/2000/svg">
<path d="M13 14.8496C15.5238 14.8496 17.811 15.5751 19.4766 16.5811C20.308 17.0831 20.9942 17.6618 21.4756 18.2656C21.9548 18.866 22.25 19.5153 22.25 20.1504C22.2499 20.8041 21.9377 21.335 21.4189 21.7471V21.748C20.9136 22.1501 20.2064 22.4433 19.3799 22.6602C17.7227 23.0937 15.4616 23.25 13 23.25C10.5379 23.25 8.27689 23.0956 6.62012 22.6611C5.79354 22.4443 5.08647 22.1501 4.58105 21.748V21.7471C4.06122 21.3339 3.75012 20.8041 3.75 20.1504C3.75 19.5153 4.04384 18.8655 4.52344 18.2637C5.00485 17.6609 5.6905 17.0836 6.52344 16.5791C8.18939 15.5752 10.478 14.8496 13 14.8496ZM13 2.75C14.2768 2.75 15.4998 3.25212 16.4004 4.14355C17.3008 5.03495 17.8057 6.24267 17.8057 7.5C17.8057 8.75733 17.3008 9.96505 16.4004 10.8564C15.4998 11.7479 14.2768 12.25 13 12.25C11.7232 12.25 10.5002 11.7479 9.59961 10.8564C8.69921 9.96505 8.19434 8.75733 8.19434 7.5C8.19434 6.24267 8.69921 5.03495 9.59961 4.14355C10.5002 3.25212 11.7232 2.75 13 2.75Z" stroke="#706C6C" stroke-width="1.5"/>
</svg>
