<svg width="20" height="22" viewBox="0 0 20 22" fill="none" xmlns="http://www.w3.org/2000/svg">
<path d="M10 12.8496C12.5238 12.8496 14.811 13.5751 16.4766 14.5811C17.308 15.0831 17.9942 15.6618 18.4756 16.2656C18.9548 16.866 19.25 17.5153 19.25 18.1504C19.2499 18.8041 18.9377 19.335 18.4189 19.7471V19.748C17.9136 20.1501 17.2064 20.4433 16.3799 20.6602C14.7227 21.0937 12.4616 21.25 10 21.25C7.53794 21.25 5.27689 21.0956 3.62012 20.6611C2.79354 20.4443 2.08647 20.1501 1.58105 19.748V19.7471C1.06122 19.3339 0.750124 18.8041 0.75 18.1504C0.75 17.5153 1.04384 16.8655 1.52344 16.2637C2.00485 15.6609 2.6905 15.0836 3.52344 14.5791C5.18939 13.5752 7.47798 12.8496 10 12.8496ZM10 0.75C11.2768 0.75 12.4998 1.25212 13.4004 2.14355C14.3008 3.03495 14.8057 4.24267 14.8057 5.5C14.8057 6.75733 14.3008 7.96505 13.4004 8.85645C12.4998 9.74788 11.2768 10.25 10 10.25C8.72323 10.25 7.50023 9.74788 6.59961 8.85645C5.69921 7.96505 5.19434 6.75733 5.19434 5.5C5.19434 4.24267 5.69921 3.03495 6.59961 2.14355C7.50023 1.25212 8.72323 0.75 10 0.75Z" fill="#13AC6F" stroke="#13AC6F" stroke-width="1.5"/>
</svg>
