<svg width="22" height="22" viewBox="0 0 22 22" fill="none" xmlns="http://www.w3.org/2000/svg">
<path d="M9.3636 2.70411C10.2691 1.79888 11.4159 1.17322 12.6672 0.901747C13.9184 0.630273 15.2214 0.724444 16.4206 1.17303C16.8282 1.32506 16.9058 1.84153 16.5985 2.1499L13.5935 5.15491C13.4896 5.25875 13.4072 5.38204 13.3509 5.51774C13.2947 5.65344 13.2657 5.7989 13.2657 5.94579C13.2657 6.09268 13.2947 6.23813 13.3509 6.37384C13.4072 6.50954 13.4896 6.63283 13.5935 6.73667L14.7623 7.90546C14.8661 8.00936 14.9894 8.09178 15.1251 8.14802C15.2608 8.20425 15.4063 8.2332 15.5532 8.2332C15.7001 8.2332 15.8455 8.20425 15.9812 8.14802C16.1169 8.09178 16.2402 8.00936 16.344 7.90546L19.3501 4.90153C19.6574 4.59423 20.1739 4.67294 20.3259 5.07943C20.7661 6.25416 20.866 7.52919 20.6144 8.75816C20.3627 9.98713 19.7697 11.1202 18.9032 12.0274C18.0368 12.9346 16.9321 13.5791 15.716 13.8869C14.4999 14.1948 13.2216 14.1535 12.0279 13.7678C11.6009 13.6298 11.1222 13.7095 10.8052 14.0265L4.82427 20.0075C4.60807 20.2374 4.34787 20.4216 4.05913 20.5491C3.77038 20.6766 3.45897 20.7449 3.14336 20.7497C2.82775 20.7546 2.51438 20.696 2.22184 20.5775C1.9293 20.4589 1.66355 20.2828 1.44035 20.0597C1.21716 19.8365 1.04106 19.5707 0.922525 19.2782C0.803985 18.9856 0.745412 18.6723 0.75028 18.3566C0.755149 18.041 0.82336 17.7296 0.950866 17.4409C1.07837 17.1521 1.26258 16.8919 1.49255 16.6757L7.47347 10.6937C7.79047 10.3768 7.87026 9.89802 7.73225 9.47104C7.35524 8.3022 7.30806 7.052 7.59589 5.85806C7.88372 4.66413 8.4954 3.57276 9.3636 2.70411Z" fill="#13AC6F" stroke="#13AC6F" stroke-width="1.5" stroke-linejoin="round"/>
</svg>
