<svg width="21" height="22" viewBox="0 0 21 22" fill="none" xmlns="http://www.w3.org/2000/svg">
<path fill-rule="evenodd" clip-rule="evenodd" d="M12.0293 0.902C11.6593 0.75 11.1893 0.75 10.2503 0.75C9.31129 0.75 8.84229 0.75 8.47129 0.902C8.22718 1.00175 8.0052 1.14878 7.81814 1.33465C7.63107 1.52051 7.48261 1.74154 7.38129 1.985C7.28729 2.208 7.25129 2.469 7.23629 2.848C7.22916 3.1225 7.15236 3.39068 7.01312 3.62736C6.87388 3.86403 6.67677 4.06142 6.4403 4.201C6.19904 4.3351 5.92784 4.40615 5.65183 4.40754C5.37581 4.40894 5.1039 4.34065 4.8613 4.209C4.5233 4.031 4.2783 3.933 4.0363 3.901C3.50689 3.83192 2.97157 3.9742 2.54631 4.297C2.22831 4.539 1.99331 4.943 1.52431 5.75C1.05431 6.557 0.820315 6.96 0.767315 7.355C0.697316 7.881 0.841315 8.413 1.16731 8.834C1.31531 9.026 1.52431 9.187 1.84731 9.389C2.32431 9.686 2.63031 10.192 2.63031 10.75C2.63031 11.308 2.32431 11.814 1.84831 12.11C1.52431 12.313 1.31531 12.474 1.16631 12.666C1.00588 12.8742 0.888064 13.112 0.819601 13.3658C0.751138 13.6196 0.73337 13.8843 0.767315 14.145C0.820315 14.539 1.05431 14.943 1.52431 15.75C1.99431 16.557 2.22831 16.96 2.54631 17.203C2.97031 17.526 3.50631 17.668 4.0363 17.599C4.2783 17.567 4.5233 17.469 4.8613 17.291C5.10403 17.1592 5.37612 17.0908 5.65233 17.0922C5.92854 17.0936 6.19992 17.1647 6.4413 17.299C6.9273 17.579 7.21529 18.094 7.23629 18.652C7.25129 19.032 7.28729 19.292 7.38129 19.515C7.58529 20.005 7.97729 20.395 8.47129 20.598C8.84129 20.75 9.31129 20.75 10.2503 20.75C11.1893 20.75 11.6593 20.75 12.0293 20.598C12.2734 20.4983 12.4954 20.3512 12.6824 20.1654C12.8695 19.9795 13.018 19.7585 13.1193 19.515C13.2133 19.292 13.2493 19.032 13.2643 18.652C13.2843 18.094 13.5733 17.578 14.0603 17.299C14.3015 17.1649 14.5727 17.0939 14.8487 17.0925C15.1248 17.0911 15.3967 17.1593 15.6393 17.291C15.9773 17.469 16.2223 17.567 16.4643 17.599C16.9943 17.669 17.5303 17.526 17.9543 17.203C18.2723 16.961 18.5073 16.557 18.9763 15.75C19.4463 14.943 19.6803 14.54 19.7333 14.145C19.7671 13.8843 19.7491 13.6195 19.6805 13.3657C19.6119 13.1119 19.4939 12.8741 19.3333 12.666C19.1853 12.474 18.9763 12.313 18.6533 12.111C18.1763 11.814 17.8703 11.308 17.8703 10.75C17.8703 10.192 18.1763 9.686 18.6523 9.39C18.9763 9.187 19.1853 9.026 19.3343 8.834C19.4947 8.62579 19.6125 8.38799 19.681 8.13422C19.7494 7.88044 19.7672 7.61565 19.7333 7.355C19.6803 6.961 19.4463 6.557 18.9763 5.75C18.5063 4.943 18.2723 4.54 17.9543 4.297C17.529 3.9742 16.9937 3.83192 16.4643 3.901C16.2223 3.933 15.9773 4.031 15.6393 4.209C15.3965 4.34083 15.1245 4.40922 14.8482 4.40782C14.572 4.40642 14.3006 4.33528 14.0593 4.201C13.823 4.0613 13.6261 3.86385 13.487 3.62719C13.348 3.39052 13.2713 3.12241 13.2643 2.848C13.2493 2.468 13.2133 2.208 13.1193 1.985C13.018 1.74154 12.8695 1.52051 12.6824 1.33465C12.4954 1.14878 12.2734 1.00175 12.0293 0.902ZM10.2503 13.75C11.9203 13.75 13.2733 12.407 13.2733 10.75C13.2733 9.093 11.9193 7.75 10.2503 7.75C8.58129 7.75 7.22729 9.093 7.22729 10.75C7.22729 12.407 8.58129 13.75 10.2503 13.75Z" stroke="#13AC6F" stroke-width="1.5" stroke-linecap="round" stroke-linejoin="round"/>
</svg>
