<svg width="17" height="19" viewBox="0 0 17 19" fill="none" xmlns="http://www.w3.org/2000/svg">
<path d="M13.25 5.75C14.6307 5.75 15.75 4.63071 15.75 3.25C15.75 1.86929 14.6307 0.75 13.25 0.75C11.8693 0.75 10.75 1.86929 10.75 3.25C10.75 4.63071 11.8693 5.75 13.25 5.75Z" stroke="#1C1D21" stroke-width="1.5" stroke-linecap="round" stroke-linejoin="round"/>
<path d="M3.25 11.5835C4.63071 11.5835 5.75 10.4642 5.75 9.0835C5.75 7.70278 4.63071 6.5835 3.25 6.5835C1.86929 6.5835 0.75 7.70278 0.75 9.0835C0.75 10.4642 1.86929 11.5835 3.25 11.5835Z" stroke="#1C1D21" stroke-width="1.5" stroke-linecap="round" stroke-linejoin="round"/>
<path d="M13.25 17.4165C14.6307 17.4165 15.75 16.2972 15.75 14.9165C15.75 13.5358 14.6307 12.4165 13.25 12.4165C11.8693 12.4165 10.75 13.5358 10.75 14.9165C10.75 16.2972 11.8693 17.4165 13.25 17.4165Z" stroke="#1C1D21" stroke-width="1.5" stroke-linecap="round" stroke-linejoin="round"/>
<path d="M5.33301 10.3333L11.1663 13.6667M11.1663 4.5L5.33301 7.83333" stroke="#1C1D21" stroke-width="1.5" stroke-linecap="round" stroke-linejoin="round"/>
</svg>
