<svg width="18" height="18" viewBox="0 0 18 18" fill="none" xmlns="http://www.w3.org/2000/svg">
<g clip-path="url(#clip0_412_2022)">
<path d="M9 2.40906V11.4286" stroke="white" stroke-width="1.5" stroke-miterlimit="10" stroke-linecap="round"/>
<path d="M12.4688 5.59204L9.495 2.61754C9.36343 2.48738 9.18583 2.41437 9.00075 2.41437C8.81567 2.41437 8.63807 2.48738 8.5065 2.61754L5.53125 5.59204M2.0625 10.3875V13.8563C2.06221 14.0842 2.10687 14.3099 2.19395 14.5205C2.28102 14.7311 2.40879 14.9225 2.56994 15.0836C2.73108 15.2448 2.92244 15.3725 3.13304 15.4596C3.34364 15.5467 3.56936 15.5913 3.79725 15.591H14.2035C14.4313 15.5912 14.657 15.5465 14.8675 15.4594C15.078 15.3723 15.2693 15.2445 15.4303 15.0833C15.5914 14.9222 15.7191 14.7309 15.8061 14.5203C15.8932 14.3098 15.9378 14.0841 15.9375 13.8563V10.3875" stroke="white" stroke-width="1.5" stroke-linecap="round" stroke-linejoin="round"/>
</g>
<defs>
<clipPath id="clip0_412_2022">
<rect width="18" height="18" fill="white"/>
</clipPath>
</defs>
</svg>
