<svg width="24" height="24" viewBox="0 0 24 24" fill="none" xmlns="http://www.w3.org/2000/svg">
<g clip-path="url(#clip0_404_1403)">
<path d="M12 13.7495C14.2561 13.7495 16.3 14.4047 17.7871 15.312C18.5294 15.7648 19.1404 16.2847 19.5674 16.8257V16.8267C19.9928 17.3651 20.25 17.9408 20.25 18.4995C20.25 19.0004 20.0435 19.4189 19.6885 19.7593L19.5273 19.9009C19.0842 20.257 18.4595 20.5206 17.7207 20.7163C16.2398 21.1076 14.2135 21.2495 12 21.2495C9.78588 21.2495 7.75986 21.1085 6.2793 20.7163C5.54052 20.5206 4.91583 20.257 4.47266 19.9009L4.31152 19.7593C3.95583 19.4184 3.75 19.0006 3.75 18.4995C3.75 17.9409 4.00595 17.3644 4.43164 16.8247L4.43262 16.8257C4.85939 16.2858 5.4676 15.765 6.21094 15.3101L6.21191 15.311C7.69955 14.4053 9.74508 13.7495 12 13.7495ZM12 2.74951C13.1272 2.74951 14.2079 3.1976 15.0049 3.99463C15.8019 4.79166 16.25 5.87234 16.25 6.99951C16.25 8.12668 15.8019 9.20736 15.0049 10.0044C14.2079 10.8014 13.1272 11.2495 12 11.2495C10.8728 11.2495 9.79215 10.8014 8.99512 10.0044C8.19809 9.20736 7.75 8.12668 7.75 6.99951C7.75 5.87234 8.19809 4.79166 8.99512 3.99463C9.79215 3.1976 10.8728 2.74951 12 2.74951Z" stroke="#13AC6F" stroke-width="1.5"/>
</g>
<defs>
<clipPath id="clip0_404_1403">
<rect width="24" height="24" fill="white"/>
</clipPath>
</defs>
</svg>
