<svg width="24" height="24" viewBox="0 0 24 24" fill="none" xmlns="http://www.w3.org/2000/svg">
<g clip-path="url(#clip0_404_1559)">
<path d="M10.7522 4.7587C11.5672 3.94399 12.5993 3.3809 13.7254 3.13657C14.8516 2.89225 16.0242 2.977 17.1035 3.38072C17.4704 3.51755 17.5402 3.98237 17.2637 4.25991L14.5591 6.96442C14.4656 7.05787 14.3914 7.16883 14.3408 7.29097C14.2902 7.4131 14.2642 7.54401 14.2642 7.67621C14.2642 7.80841 14.2902 7.93932 14.3408 8.06145C14.3914 8.18358 14.4656 8.29455 14.5591 8.388L15.6111 9.43991C15.7045 9.53343 15.8155 9.60761 15.9376 9.65822C16.0597 9.70883 16.1906 9.73488 16.3228 9.73488C16.4551 9.73488 16.586 9.70883 16.7081 9.65822C16.8302 9.60761 16.9412 9.53343 17.0346 9.43991L19.7401 6.73637C20.0167 6.45981 20.4815 6.53065 20.6183 6.89649C21.0145 7.95375 21.1044 9.10127 20.878 10.2073C20.6515 11.3134 20.1177 12.3332 19.3379 13.1497C18.5581 13.9662 17.5639 14.5462 16.4694 14.8233C15.3749 15.1003 14.2244 15.0631 13.1501 14.716C12.7658 14.5918 12.335 14.6636 12.0497 14.9489L6.66684 20.3317C6.47226 20.5387 6.23808 20.7045 5.97821 20.8192C5.71834 20.934 5.43807 20.9954 5.15402 20.9997C4.86997 21.0041 4.58794 20.9514 4.32465 20.8447C4.06137 20.738 3.82219 20.5796 3.62132 20.3787C3.42044 20.1778 3.26196 19.9386 3.15527 19.6753C3.04859 19.4121 2.99587 19.13 3.00025 18.846C3.00463 18.5619 3.06602 18.2817 3.18078 18.0218C3.29553 17.7619 3.46132 17.5277 3.66829 17.3332L9.05113 11.9494C9.33642 11.6641 9.40824 11.2332 9.28402 10.8489C8.94472 9.79698 8.90225 8.6718 9.1613 7.59725C9.42035 6.52271 9.97086 5.54048 10.7522 4.7587Z" stroke="#13AC6F" stroke-width="1.5" stroke-linejoin="round"/>
</g>
<defs>
<clipPath id="clip0_404_1559">
<rect width="24" height="24" fill="white"/>
</clipPath>
</defs>
</svg>
