<svg width="24" height="20" viewBox="0 0 24 20" fill="none" xmlns="http://www.w3.org/2000/svg">
<path d="M5.14941 5.25002H9.54948" stroke="#706C6C" stroke-width="1.5" stroke-linecap="round" stroke-linejoin="round"/>
<path d="M21.4662 6.375H18.604C16.6404 6.375 15.0498 7.88588 15.0498 9.75C15.0498 11.6141 16.6415 13.125 18.6029 13.125H21.4662C21.5586 13.125 21.6037 13.125 21.6422 13.1228C22.2362 13.0856 22.7092 12.6368 22.7477 12.0731C22.7499 12.0371 22.7499 11.9933 22.7499 11.9066V7.59338C22.7499 7.50675 22.7499 7.46288 22.7477 7.42688C22.7081 6.86325 22.2362 6.41437 21.6422 6.37725C21.6048 6.375 21.5586 6.375 21.4662 6.375Z" stroke="#706C6C" stroke-width="1.5"/>
<path d="M21.6118 6.375C21.526 4.269 21.251 2.9775 20.3611 2.0685C19.073 0.75 16.9983 0.75 12.8502 0.75H9.55013C5.40197 0.75 3.32734 0.75 2.03922 2.0685C0.7511 3.387 0.75 5.50763 0.75 9.75C0.75 13.9924 0.75 16.1141 2.03922 17.4315C3.32844 18.7489 5.40197 18.75 9.55013 18.75H12.8502C16.9983 18.75 19.073 18.75 20.3611 17.4315C21.251 16.5225 21.5271 15.231 21.6118 13.125" stroke="#706C6C" stroke-width="1.5"/>
<path d="M18.3398 9.74992H18.35" stroke="#706C6C" stroke-width="1.5" stroke-linecap="round" stroke-linejoin="round"/>
</svg>
