<svg width="22" height="18" viewBox="0 0 22 18" fill="none" xmlns="http://www.w3.org/2000/svg">
<path fill-rule="evenodd" clip-rule="evenodd" d="M20.2496 5.14711C20.1895 5.14368 20.1256 5.14231 20.0577 5.14299H17.3806C15.1881 5.14299 13.3125 6.81751 13.3125 9.00014C13.3125 11.1828 15.1891 12.8573 17.3806 12.8573H20.0577C20.1256 12.858 20.1899 12.8566 20.2507 12.8532C20.7013 12.8268 21.1267 12.6424 21.4476 12.3343C21.7684 12.0263 21.9629 11.6155 21.9948 11.1787C21.999 11.1169 21.999 11.0501 21.999 10.9884V7.01191C21.999 6.95019 21.999 6.88334 21.9948 6.82162C21.9629 6.38475 21.7684 5.97401 21.4476 5.66594C21.1267 5.35786 20.7003 5.17347 20.2496 5.14711ZM17.1463 10.0287C17.7104 10.0287 18.1673 9.56791 18.1673 9.00014C18.1673 8.43236 17.7104 7.97157 17.1463 7.97157C16.5812 7.97157 16.1242 8.43236 16.1242 9.00014C16.1242 9.56791 16.5812 10.0287 17.1463 10.0287Z" fill="#13AC6F"/>
<path fill-rule="evenodd" clip-rule="evenodd" d="M20.0575 14.4C20.0942 14.3986 20.1307 14.4056 20.164 14.4204C20.1974 14.4352 20.2267 14.4574 20.2495 14.4853C20.2723 14.5131 20.2881 14.5458 20.2954 14.5807C20.3028 14.6156 20.3016 14.6516 20.2919 14.6859C20.0798 15.4183 19.7416 16.0437 19.1998 16.5682C18.4057 17.3397 17.3995 17.6801 16.1569 17.8426C14.9483 18 13.4056 18 11.4569 18H9.21769C7.26898 18 5.72528 18 4.51767 17.8426C3.27507 17.6801 2.26891 17.3386 1.47479 16.5693C0.681732 15.7989 0.329734 14.8227 0.162216 13.6173C1.2639e-07 12.4447 0 10.9481 0 9.0576V8.9424C0 7.05189 1.2639e-07 5.55429 0.162216 4.38171C0.329734 3.17623 0.681732 2.20011 1.47479 1.42971C2.26891 0.660343 3.27507 0.318857 4.51767 0.156343C5.72634 -4.59807e-08 7.26898 0 9.21769 0H11.4569C13.4056 0 14.9493 1.22615e-07 16.1569 0.157372C17.3995 0.319886 18.4057 0.661371 19.1998 1.43074C19.7416 1.95737 20.0798 2.58171 20.2919 3.31406C20.3016 3.34838 20.3028 3.38444 20.2954 3.4193C20.2881 3.45417 20.2723 3.48685 20.2495 3.51471C20.2267 3.54257 20.1974 3.56481 20.164 3.57963C20.1307 3.59445 20.0942 3.60143 20.0575 3.6H17.3815C14.3736 3.6 11.723 5.904 11.723 9C11.723 12.096 14.3736 14.4 17.3815 14.4H20.0575ZM3.97589 4.11429C3.76499 4.11429 3.56274 4.19556 3.41361 4.34023C3.26449 4.4849 3.18071 4.68112 3.18071 4.88571C3.18071 5.09031 3.26449 5.28653 3.41361 5.4312C3.56274 5.57587 3.76499 5.65714 3.97589 5.65714H8.21683C8.42772 5.65714 8.62998 5.57587 8.77911 5.4312C8.92823 5.28653 9.01201 5.09031 9.01201 4.88571C9.01201 4.68112 8.92823 4.4849 8.77911 4.34023C8.62998 4.19556 8.42772 4.11429 8.21683 4.11429H3.97589Z" fill="#13AC6F"/>
</svg>
