<svg width="18" height="19" viewBox="0 0 18 19" fill="none" xmlns="http://www.w3.org/2000/svg">
<path d="M5.39961 4.37153V3.45724C5.39961 2.69948 5.70063 1.97275 6.23645 1.43694C6.77227 0.901117 7.49899 0.600098 8.25675 0.600098H9.39961C10.1574 0.600098 10.8841 0.901117 11.4199 1.43694C11.9557 1.97275 12.2568 2.69948 12.2568 3.45724V4.37153M8.82818 4.37153C6.72104 4.37153 4.51818 4.37153 2.67104 4.7001C2.23911 4.7781 1.84011 4.98271 1.52471 5.28794C1.20931 5.59317 0.991731 5.98525 0.899609 6.41438C0.599609 7.8001 0.599609 9.09153 0.599609 11.0572C0.599609 13.023 0.599609 14.3144 0.899609 15.7001C0.991983 16.129 1.20967 16.5207 1.52506 16.8257C1.84044 17.1307 2.2393 17.335 2.67104 17.413C4.51818 17.7415 6.72104 17.7415 8.82818 17.7415C10.9353 17.7415 13.1382 17.7415 14.9853 17.413C15.4172 17.3349 15.8162 17.1303 16.1317 16.8251C16.4471 16.5199 16.6646 16.1278 16.7568 15.6987C17.0568 14.3144 17.0568 13.023 17.0568 11.0558C17.0568 9.09153 17.0568 7.79867 16.7568 6.41438C16.6646 5.98525 16.4471 5.59317 16.1317 5.28794C15.8162 4.98271 15.4172 4.7781 14.9853 4.7001C13.1382 4.37153 10.9353 4.37153 8.82818 4.37153Z" stroke="#13AC6F" stroke-width="1.2" stroke-linecap="round" stroke-linejoin="round"/>
<path d="M0.609375 9.17139L7.92795 11.6142C8.51534 11.8104 9.15056 11.8104 9.73795 11.6142L17.0565 9.17139" stroke="#13AC6F" stroke-width="1.2" stroke-linecap="round" stroke-linejoin="round"/>
</svg>
