<svg width="41" height="41" viewBox="0 0 41 41" fill="none" xmlns="http://www.w3.org/2000/svg">
<path d="M17.6431 4.7757C19.3927 3.02664 21.6085 1.81774 24.0261 1.2932C26.4438 0.768665 28.9614 0.95062 31.2785 1.81737C32.066 2.11112 32.216 3.10903 31.6222 3.70487L25.816 9.51112C25.6152 9.71175 25.456 9.94997 25.3473 10.2122C25.2387 10.4744 25.1827 10.7554 25.1827 11.0392C25.1827 11.3231 25.2387 11.6041 25.3473 11.8663C25.456 12.1285 25.6152 12.3667 25.816 12.5674L28.0743 14.8257C28.275 15.0265 28.5132 15.1857 28.7754 15.2944C29.0376 15.403 29.3186 15.459 29.6024 15.459C29.8863 15.459 30.1673 15.403 30.4295 15.2944C30.6917 15.1857 30.9299 15.0265 31.1306 14.8257L36.9389 9.02153C37.5327 8.42778 38.5306 8.57987 38.8243 9.36528C39.6747 11.6351 39.8679 14.0987 39.3817 16.4733C38.8954 18.8479 37.7495 21.0373 36.0754 22.7901C34.4013 24.543 32.2668 25.7883 29.9171 26.3831C27.5673 26.9779 25.0975 26.898 22.791 26.1528C21.966 25.8861 21.041 26.0403 20.4285 26.6528L8.87224 38.209C8.45449 38.6534 7.95175 39.0093 7.39384 39.2557C6.83593 39.502 6.23422 39.6338 5.62441 39.6432C5.0146 39.6526 4.40911 39.5395 3.84386 39.3104C3.27862 39.0814 2.76514 38.7411 2.33388 38.3099C1.90263 37.8786 1.56239 37.3652 1.33335 36.7999C1.10431 36.2347 0.991135 35.6292 1.00054 35.0194C1.00995 34.4096 1.14174 33.8078 1.38811 33.2499C1.63448 32.692 1.99039 32.1893 2.43474 31.7715L13.991 20.2132C14.6035 19.6007 14.7577 18.6757 14.491 17.8507C13.7625 15.5923 13.6714 13.1766 14.2275 10.8697C14.7837 8.56283 15.9656 6.4541 17.6431 4.7757Z" stroke="#13AC6F" stroke-width="2" stroke-linejoin="round"/>
</svg>
